<svg xmlns="http://www.w3.org/2000/svg" width="1200" height="300" viewBox="0 0 1200 300" role="img" aria-labelledby="title desc"><title id="title">Synthetic user journey</title><desc id="desc"></desc><rect width="1200" height="300" rx="24" fill="#f7f5ef"/><style>text{font-family:-apple-system,BlinkMacSystemFont,"Segoe UI",sans-serif;fill:#17211c}.h{font-size:20px;font-weight:800}.l{font-size:16px;font-weight:750}.s{font-size:13px;fill:#66736c}.v{font-size:23px;font-weight:850}</style><text x="30" y="38" class="h" text-anchor="start">User journey · date → search → detail</text><text x="1170" y="38" class="s" text-anchor="end">SYNTHETIC DATA</text><rect x="30" y="60" width="360" height="210" rx="14" fill="#fffdfa" stroke="#cfd8d2"/><path d="M44 60h332a14 14 0 0 1 14 14v38h-360v-38a14 14 0 0 1 14-14z" fill="#174e3a"/><text x="48" y="94" class="l" text-anchor="start" fill="#fff">Dispatch overview</text><rect x="420" y="60" width="360" height="210" rx="14" fill="#fffdfa" stroke="#cfd8d2"/><path d="M434 60h332a14 14 0 0 1 14 14v38h-360v-38a14 14 0 0 1 14-14z" fill="#174e3a"/><text x="438" y="94" class="l" text-anchor="start" fill="#fff">Route search</text><rect x="810" y="60" width="360" height="210" rx="14" fill="#fffdfa" stroke="#cfd8d2"/><path d="M824 60h332a14 14 0 0 1 14 14v38h-360v-38a14 14 0 0 1 14-14z" fill="#174e3a"/><text x="828" y="94" class="l" text-anchor="start" fill="#fff">Route detail</text><text x="50" y="143" class="s" text-anchor="start">2026.07.24</text><rect x="50" y="158" width="92" height="70" rx="8" fill="#e4f1e9" stroke="#e4f1e9"/><text x="62" y="181" class="s" text-anchor="start">Routes</text><text x="62" y="216" class="v" text-anchor="start">128</text><rect x="152" y="158" width="92" height="70" rx="8" fill="#e4f1e9" stroke="#e4f1e9"/><text x="164" y="181" class="s" text-anchor="start">Loads</text><text x="164" y="216" class="v" text-anchor="start">3,480</text><text x="50" y="252" class="s" text-anchor="start">340102  Seoul → Busan</text><rect x="440" y="138" width="320" height="48" rx="8" fill="#fff" stroke="#cfd8d2"/><text x="458" y="169" class="l" text-anchor="start">340102</text><rect x="440" y="197" width="320" height="56" rx="8" fill="#e4f1e9" stroke="#e4f1e9"/><text x="458" y="221" class="l" text-anchor="start">Seoul → Busan</text><text x="458" y="242" class="s" text-anchor="start">Vehicle demo-0000 · ₩480,000</text><rect x="830" y="135" width="145" height="56" rx="8" fill="#e4f1e9" stroke="#e4f1e9"/><text x="840" y="156" class="s" text-anchor="start">Loads</text><text x="840" y="181" class="l" text-anchor="start">18</text><rect x="985" y="135" width="145" height="56" rx="8" fill="#e4f1e9" stroke="#e4f1e9"/><text x="995" y="156" class="s" text-anchor="start">Qty</text><text x="995" y="181" class="l" text-anchor="start">31</text><rect x="830" y="200" width="145" height="56" rx="8" fill="#e4f1e9" stroke="#e4f1e9"/><text x="840" y="221" class="s" text-anchor="start">Section</text><text x="840" y="246" class="l" text-anchor="start">₩310k</text><rect x="985" y="200" width="145" height="56" rx="8" fill="#e4f1e9" stroke="#e4f1e9"/><text x="995" y="221" class="s" text-anchor="start">Total</text><text x="995" y="246" class="l" text-anchor="start">₩480k</text></svg>