<svg xmlns="http://www.w3.org/2000/svg" width="1200" height="470" viewBox="0 0 1200 470" role="img" aria-labelledby="title desc">
<title id="title">Before and after current-date hourly recheck</title><desc id="desc">Before and after current-date hourly recheck</desc>
<rect width="1200" height="470" rx="28" fill="#f7f5ef"/>
<style>text{font-family:-apple-system,BlinkMacSystemFont,"Segoe UI",sans-serif;fill:#17211c}.label{font-size:18px;font-weight:800}.small{font-size:14px;fill:#66736c}.tiny{font-size:12px;fill:#66736c}.value{font-size:24px;font-weight:850}.mono{font-family:ui-monospace,SFMono-Regular,Menlo,monospace;font-size:13px;font-weight:700}</style>
<text x="35" y="48" class="value" text-anchor="start">Scenario 02 · Current-date recheck prevents morning gaps</text><rect x="35" y="90" width="500" height="330" rx="20" fill="#f8dddd" stroke="#f8dddd"/><rect x="57" y="112" width="86" height="34" rx="17" fill="#fff" stroke="#fff"/><text x="100" y="135" class="tiny" text-anchor="middle">BEFORE</text><rect x="665" y="90" width="500" height="330" rx="20" fill="#e4f1e9" stroke="#e4f1e9"/><rect x="687" y="112" width="86" height="34" rx="17" fill="#fff" stroke="#fff"/><text x="730" y="135" class="tiny" text-anchor="middle">AFTER</text><text x="60" y="178" class="label" text-anchor="start">Previous day before 14:00</text><text x="60" y="212" class="small" text-anchor="start">Morning data omitted from target date</text><text x="690" y="178" class="label" text-anchor="start">Recheck current date hourly</text><text x="690" y="212" class="small" text-anchor="start">Mon–Sat 06:00–20:00 · 15 scheduled slots</text><rect x="60" y="265" width="98" height="94" rx="10" fill="#f0c9c6" stroke="#f0c9c6"/><text x="109" y="297" class="tiny" text-anchor="middle">06:00</text><text x="109" y="333" class="small" text-anchor="middle">Previous</text><rect x="168" y="265" width="98" height="94" rx="10" fill="#f0c9c6" stroke="#f0c9c6"/><text x="217" y="297" class="tiny" text-anchor="middle">10:00</text><text x="217" y="333" class="small" text-anchor="middle">Previous</text><rect x="276" y="265" width="98" height="94" rx="10" fill="#eef0ec" stroke="#eef0ec"/><text x="325" y="297" class="tiny" text-anchor="middle">14:00</text><text x="325" y="333" class="small" text-anchor="middle">Current</text><rect x="384" y="265" width="98" height="94" rx="10" fill="#eef0ec" stroke="#eef0ec"/><text x="433" y="297" class="tiny" text-anchor="middle">20:00</text><text x="433" y="333" class="small" text-anchor="middle">Current</text><rect x="690" y="265" width="98" height="94" rx="10" fill="#cde8d8" stroke="#cde8d8"/><text x="739" y="297" class="tiny" text-anchor="middle">06:00</text><text x="739" y="333" class="small" text-anchor="middle">Current</text><rect x="798" y="265" width="98" height="94" rx="10" fill="#cde8d8" stroke="#cde8d8"/><text x="847" y="297" class="tiny" text-anchor="middle">10:00</text><text x="847" y="333" class="small" text-anchor="middle">Current</text><rect x="906" y="265" width="98" height="94" rx="10" fill="#cde8d8" stroke="#cde8d8"/><text x="955" y="297" class="tiny" text-anchor="middle">14:00</text><text x="955" y="333" class="small" text-anchor="middle">Current</text><rect x="1014" y="265" width="98" height="94" rx="10" fill="#cde8d8" stroke="#cde8d8"/><text x="1063" y="297" class="tiny" text-anchor="middle">20:00</text><text x="1063" y="333" class="small" text-anchor="middle">Current</text><path d="M560 255h55m-16-16 16 16-16 16" fill="none" stroke="#174e3a" stroke-width="5" stroke-linecap="round" stroke-linejoin="round"/><text x="1165" y="447" class="tiny" text-anchor="end">Independent recheck · failure logs · next scheduled run</text></svg>